<svg width="84" height="84" xmlns="http://www.w3.org/2000/svg">
<rect x="0" y="64" width="2" height="2" fill="yellow" />
<rect x="0" y="0" width="2" height="2" fill="yellow" />
<rect x="1" y="64" width="2" height="2" fill="yellow" />
<rect x="1" y="0" width="2" height="2" fill="yellow" />
<rect x="2" y="64" width="2" height="2" fill="yellow" />
<rect x="2" y="0" width="2" height="2" fill="yellow" />
<rect x="3" y="64" width="2" height="2" fill="yellow" />
<rect x="3" y="0" width="2" height="2" fill="yellow" />
<rect x="4" y="64" width="2" height="2" fill="yellow" />
<rect x="4" y="0" width="2" height="2" fill="yellow" />
<rect x="5" y="64" width="2" height="2" fill="yellow" />
<rect x="5" y="0" width="2" height="2" fill="yellow" />
<rect x="6" y="64" width="2" height="2" fill="yellow" />
<rect x="6" y="0" width="2" height="2" fill="yellow" />
<rect x="7" y="64" width="2" height="2" fill="yellow" />
<rect x="7" y="0" width="2" height="2" fill="yellow" />
<rect x="8" y="64" width="2" height="2" fill="yellow" />
<rect x="8" y="0" width="2" height="2" fill="yellow" />
<rect x="9" y="64" width="2" height="2" fill="yellow" />
<rect x="9" y="0" width="2" height="2" fill="yellow" />
<rect x="10" y="64" width="2" height="2" fill="yellow" />
<rect x="10" y="0" width="2" height="2" fill="yellow" />
<rect x="11" y="64" width="2" height="2" fill="yellow" />
<rect x="11" y="0" width="2" height="2" fill="yellow" />
<rect x="12" y="64" width="2" height="2" fill="yellow" />
<rect x="12" y="0" width="2" height="2" fill="yellow" />
<rect x="13" y="64" width="2" height="2" fill="yellow" />
<rect x="13" y="0" width="2" height="2" fill="yellow" />
<rect x="14" y="64" width="2" height="2" fill="yellow" />
<rect x="14" y="0" width="2" height="2" fill="yellow" />
<rect x="15" y="64" width="2" height="2" fill="yellow" />
<rect x="15" y="0" width="2" height="2" fill="yellow" />
<rect x="16" y="64" width="2" height="2" fill="yellow" />
<rect x="16" y="0" width="2" height="2" fill="yellow" />
<rect x="17" y="64" width="2" height="2" fill="yellow" />
<rect x="17" y="0" width="2" height="2" fill="yellow" />
<rect x="18" y="64" width="2" height="2" fill="yellow" />
<rect x="18" y="0" width="2" height="2" fill="yellow" />
<rect x="19" y="64" width="2" height="2" fill="yellow" />
<rect x="19" y="0" width="2" height="2" fill="yellow" />
<rect x="20" y="64" width="2" height="2" fill="yellow" />
<rect x="20" y="0" width="2" height="2" fill="yellow" />
<rect x="21" y="64" width="2" height="2" fill="yellow" />
<rect x="21" y="0" width="2" height="2" fill="yellow" />
<rect x="22" y="64" width="2" height="2" fill="yellow" />
<rect x="22" y="0" width="2" height="2" fill="yellow" />
<rect x="23" y="64" width="2" height="2" fill="yellow" />
<rect x="23" y="0" width="2" height="2" fill="yellow" />
<rect x="24" y="64" width="2" height="2" fill="yellow" />
<rect x="24" y="0" width="2" height="2" fill="yellow" />
<rect x="25" y="64" width="2" height="2" fill="yellow" />
<rect x="25" y="0" width="2" height="2" fill="yellow" />
<rect x="26" y="64" width="2" height="2" fill="yellow" />
<rect x="26" y="0" width="2" height="2" fill="yellow" />
<rect x="27" y="64" width="2" height="2" fill="yellow" />
<rect x="27" y="0" width="2" height="2" fill="yellow" />
<rect x="28" y="64" width="2" height="2" fill="yellow" />
<rect x="28" y="0" width="2" height="2" fill="yellow" />
<rect x="29" y="64" width="2" height="2" fill="yellow" />
<rect x="29" y="0" width="2" height="2" fill="yellow" />
<rect x="30" y="64" width="2" height="2" fill="yellow" />
<rect x="30" y="0" width="2" height="2" fill="yellow" />
<rect x="31" y="64" width="2" height="2" fill="yellow" />
<rect x="31" y="0" width="2" height="2" fill="yellow" />
<rect x="32" y="64" width="2" height="2" fill="yellow" />
<rect x="32" y="0" width="2" height="2" fill="yellow" />
<rect x="33" y="64" width="2" height="2" fill="yellow" />
<rect x="33" y="0" width="2" height="2" fill="yellow" />
<rect x="34" y="64" width="2" height="2" fill="yellow" />
<rect x="34" y="0" width="2" height="2" fill="yellow" />
<rect x="35" y="64" width="2" height="2" fill="yellow" />
<rect x="35" y="0" width="2" height="2" fill="yellow" />
<rect x="36" y="64" width="2" height="2" fill="yellow" />
<rect x="36" y="0" width="2" height="2" fill="yellow" />
<rect x="37" y="64" width="2" height="2" fill="yellow" />
<rect x="37" y="0" width="2" height="2" fill="yellow" />
<rect x="38" y="64" width="2" height="2" fill="yellow" />
<rect x="38" y="0" width="2" height="2" fill="yellow" />
<rect x="39" y="64" width="2" height="2" fill="yellow" />
<rect x="39" y="0" width="2" height="2" fill="yellow" />
<rect x="40" y="64" width="2" height="2" fill="yellow" />
<rect x="40" y="0" width="2" height="2" fill="yellow" />
<rect x="41" y="64" width="2" height="2" fill="yellow" />
<rect x="41" y="0" width="2" height="2" fill="yellow" />
<rect x="42" y="64" width="2" height="2" fill="yellow" />
<rect x="42" y="0" width="2" height="2" fill="yellow" />
<rect x="43" y="64" width="2" height="2" fill="yellow" />
<rect x="43" y="0" width="2" height="2" fill="yellow" />
<rect x="44" y="64" width="2" height="2" fill="yellow" />
<rect x="44" y="0" width="2" height="2" fill="yellow" />
<rect x="45" y="64" width="2" height="2" fill="yellow" />
<rect x="45" y="0" width="2" height="2" fill="yellow" />
<rect x="46" y="64" width="2" height="2" fill="yellow" />
<rect x="46" y="0" width="2" height="2" fill="yellow" />
<rect x="47" y="64" width="2" height="2" fill="yellow" />
<rect x="47" y="0" width="2" height="2" fill="yellow" />
<rect x="48" y="64" width="2" height="2" fill="yellow" />
<rect x="48" y="0" width="2" height="2" fill="yellow" />
<rect x="49" y="64" width="2" height="2" fill="yellow" />
<rect x="49" y="0" width="2" height="2" fill="yellow" />
<rect x="50" y="64" width="2" height="2" fill="yellow" />
<rect x="50" y="0" width="2" height="2" fill="yellow" />
<rect x="51" y="64" width="2" height="2" fill="yellow" />
<rect x="51" y="0" width="2" height="2" fill="yellow" />
<rect x="52" y="64" width="2" height="2" fill="yellow" />
<rect x="52" y="0" width="2" height="2" fill="yellow" />
<rect x="53" y="64" width="2" height="2" fill="yellow" />
<rect x="53" y="0" width="2" height="2" fill="yellow" />
<rect x="54" y="64" width="2" height="2" fill="yellow" />
<rect x="54" y="0" width="2" height="2" fill="yellow" />
<rect x="55" y="64" width="2" height="2" fill="yellow" />
<rect x="55" y="0" width="2" height="2" fill="yellow" />
<rect x="56" y="64" width="2" height="2" fill="yellow" />
<rect x="56" y="0" width="2" height="2" fill="yellow" />
<rect x="57" y="64" width="2" height="2" fill="yellow" />
<rect x="57" y="0" width="2" height="2" fill="yellow" />
<rect x="58" y="64" width="2" height="2" fill="yellow" />
<rect x="58" y="0" width="2" height="2" fill="yellow" />
<rect x="59" y="64" width="2" height="2" fill="yellow" />
<rect x="59" y="0" width="2" height="2" fill="yellow" />
<rect x="60" y="64" width="2" height="2" fill="yellow" />
<rect x="60" y="0" width="2" height="2" fill="yellow" />
<rect x="61" y="64" width="2" height="2" fill="yellow" />
<rect x="61" y="0" width="2" height="2" fill="yellow" />
<rect x="62" y="64" width="2" height="2" fill="yellow" />
<rect x="62" y="0" width="2" height="2" fill="yellow" />
<rect x="63" y="64" width="2" height="2" fill="yellow" />
<rect x="63" y="0" width="2" height="2" fill="yellow" />
<rect x="64" y="64" width="2" height="2" fill="yellow" />
<rect x="64" y="0" width="2" height="2" fill="yellow" />
<rect x="0" y="63" width="2" height="2" fill="yellow" />
<rect x="64" y="63" width="2" height="2" fill="yellow" />
<rect x="0" y="62" width="2" height="2" fill="yellow" />
<rect x="64" y="62" width="2" height="2" fill="yellow" />
<rect x="0" y="61" width="2" height="2" fill="yellow" />
<rect x="64" y="61" width="2" height="2" fill="yellow" />
<rect x="0" y="60" width="2" height="2" fill="yellow" />
<rect x="64" y="60" width="2" height="2" fill="yellow" />
<rect x="0" y="59" width="2" height="2" fill="yellow" />
<rect x="64" y="59" width="2" height="2" fill="yellow" />
<rect x="0" y="58" width="2" height="2" fill="yellow" />
<rect x="64" y="58" width="2" height="2" fill="yellow" />
<rect x="0" y="57" width="2" height="2" fill="yellow" />
<rect x="64" y="57" width="2" height="2" fill="yellow" />
<rect x="0" y="56" width="2" height="2" fill="yellow" />
<rect x="64" y="56" width="2" height="2" fill="yellow" />
<rect x="0" y="55" width="2" height="2" fill="yellow" />
<rect x="64" y="55" width="2" height="2" fill="yellow" />
<rect x="0" y="54" width="2" height="2" fill="yellow" />
<rect x="64" y="54" width="2" height="2" fill="yellow" />
<rect x="0" y="53" width="2" height="2" fill="yellow" />
<rect x="64" y="53" width="2" height="2" fill="yellow" />
<rect x="0" y="52" width="2" height="2" fill="yellow" />
<rect x="64" y="52" width="2" height="2" fill="yellow" />
<rect x="0" y="51" width="2" height="2" fill="yellow" />
<rect x="64" y="51" width="2" height="2" fill="yellow" />
<rect x="0" y="50" width="2" height="2" fill="yellow" />
<rect x="64" y="50" width="2" height="2" fill="yellow" />
<rect x="0" y="49" width="2" height="2" fill="yellow" />
<rect x="64" y="49" width="2" height="2" fill="yellow" />
<rect x="0" y="48" width="2" height="2" fill="yellow" />
<rect x="64" y="48" width="2" height="2" fill="yellow" />
<rect x="0" y="47" width="2" height="2" fill="yellow" />
<rect x="64" y="47" width="2" height="2" fill="yellow" />
<rect x="0" y="46" width="2" height="2" fill="yellow" />
<rect x="64" y="46" width="2" height="2" fill="yellow" />
<rect x="0" y="45" width="2" height="2" fill="yellow" />
<rect x="64" y="45" width="2" height="2" fill="yellow" />
<rect x="0" y="44" width="2" height="2" fill="yellow" />
<rect x="64" y="44" width="2" height="2" fill="yellow" />
<rect x="0" y="43" width="2" height="2" fill="yellow" />
<rect x="64" y="43" width="2" height="2" fill="yellow" />
<rect x="0" y="42" width="2" height="2" fill="yellow" />
<rect x="64" y="42" width="2" height="2" fill="yellow" />
<rect x="0" y="41" width="2" height="2" fill="yellow" />
<rect x="64" y="41" width="2" height="2" fill="yellow" />
<rect x="0" y="40" width="2" height="2" fill="yellow" />
<rect x="64" y="40" width="2" height="2" fill="yellow" />
<rect x="0" y="39" width="2" height="2" fill="yellow" />
<rect x="64" y="39" width="2" height="2" fill="yellow" />
<rect x="0" y="38" width="2" height="2" fill="yellow" />
<rect x="64" y="38" width="2" height="2" fill="yellow" />
<rect x="0" y="37" width="2" height="2" fill="yellow" />
<rect x="64" y="37" width="2" height="2" fill="yellow" />
<rect x="0" y="36" width="2" height="2" fill="yellow" />
<rect x="64" y="36" width="2" height="2" fill="yellow" />
<rect x="0" y="35" width="2" height="2" fill="yellow" />
<rect x="64" y="35" width="2" height="2" fill="yellow" />
<rect x="0" y="34" width="2" height="2" fill="yellow" />
<rect x="64" y="34" width="2" height="2" fill="yellow" />
<rect x="0" y="33" width="2" height="2" fill="yellow" />
<rect x="64" y="33" width="2" height="2" fill="yellow" />
<rect x="0" y="32" width="2" height="2" fill="yellow" />
<rect x="64" y="32" width="2" height="2" fill="yellow" />
<rect x="0" y="31" width="2" height="2" fill="yellow" />
<rect x="64" y="31" width="2" height="2" fill="yellow" />
<rect x="0" y="30" width="2" height="2" fill="yellow" />
<rect x="64" y="30" width="2" height="2" fill="yellow" />
<rect x="0" y="29" width="2" height="2" fill="yellow" />
<rect x="64" y="29" width="2" height="2" fill="yellow" />
<rect x="0" y="28" width="2" height="2" fill="yellow" />
<rect x="64" y="28" width="2" height="2" fill="yellow" />
<rect x="0" y="27" width="2" height="2" fill="yellow" />
<rect x="64" y="27" width="2" height="2" fill="yellow" />
<rect x="0" y="26" width="2" height="2" fill="yellow" />
<rect x="64" y="26" width="2" height="2" fill="yellow" />
<rect x="0" y="25" width="2" height="2" fill="yellow" />
<rect x="64" y="25" width="2" height="2" fill="yellow" />
<rect x="0" y="24" width="2" height="2" fill="yellow" />
<rect x="64" y="24" width="2" height="2" fill="yellow" />
<rect x="0" y="23" width="2" height="2" fill="yellow" />
<rect x="64" y="23" width="2" height="2" fill="yellow" />
<rect x="0" y="22" width="2" height="2" fill="yellow" />
<rect x="64" y="22" width="2" height="2" fill="yellow" />
<rect x="0" y="21" width="2" height="2" fill="yellow" />
<rect x="64" y="21" width="2" height="2" fill="yellow" />
<rect x="0" y="20" width="2" height="2" fill="yellow" />
<rect x="64" y="20" width="2" height="2" fill="yellow" />
<rect x="0" y="19" width="2" height="2" fill="yellow" />
<rect x="64" y="19" width="2" height="2" fill="yellow" />
<rect x="0" y="18" width="2" height="2" fill="yellow" />
<rect x="64" y="18" width="2" height="2" fill="yellow" />
<rect x="0" y="17" width="2" height="2" fill="yellow" />
<rect x="64" y="17" width="2" height="2" fill="yellow" />
<rect x="0" y="16" width="2" height="2" fill="yellow" />
<rect x="64" y="16" width="2" height="2" fill="yellow" />
<rect x="0" y="15" width="2" height="2" fill="yellow" />
<rect x="64" y="15" width="2" height="2" fill="yellow" />
<rect x="0" y="14" width="2" height="2" fill="yellow" />
<rect x="64" y="14" width="2" height="2" fill="yellow" />
<rect x="0" y="13" width="2" height="2" fill="yellow" />
<rect x="64" y="13" width="2" height="2" fill="yellow" />
<rect x="0" y="12" width="2" height="2" fill="yellow" />
<rect x="64" y="12" width="2" height="2" fill="yellow" />
<rect x="0" y="11" width="2" height="2" fill="yellow" />
<rect x="64" y="11" width="2" height="2" fill="yellow" />
<rect x="0" y="10" width="2" height="2" fill="yellow" />
<rect x="64" y="10" width="2" height="2" fill="yellow" />
<rect x="0" y="9" width="2" height="2" fill="yellow" />
<rect x="64" y="9" width="2" height="2" fill="yellow" />
<rect x="0" y="8" width="2" height="2" fill="yellow" />
<rect x="64" y="8" width="2" height="2" fill="yellow" />
<rect x="0" y="7" width="2" height="2" fill="yellow" />
<rect x="64" y="7" width="2" height="2" fill="yellow" />
<rect x="0" y="6" width="2" height="2" fill="yellow" />
<rect x="64" y="6" width="2" height="2" fill="yellow" />
<rect x="0" y="5" width="2" height="2" fill="yellow" />
<rect x="64" y="5" width="2" height="2" fill="yellow" />
<rect x="0" y="4" width="2" height="2" fill="yellow" />
<rect x="64" y="4" width="2" height="2" fill="yellow" />
<rect x="0" y="3" width="2" height="2" fill="yellow" />
<rect x="64" y="3" width="2" height="2" fill="yellow" />
<rect x="0" y="2" width="2" height="2" fill="yellow" />
<rect x="64" y="2" width="2" height="2" fill="yellow" />
<rect x="0" y="1" width="2" height="2" fill="yellow" />
<rect x="64" y="1" width="2" height="2" fill="yellow" />
<rect x="43" y="32" width="2" height="2" fill="yellow" />
<rect x="43" y="32" width="2" height="2" fill="yellow" />
<rect x="43" y="32" width="2" height="2" fill="yellow" />
<rect x="43" y="31" width="2" height="2" fill="yellow" />
<rect x="43" y="31" width="2" height="2" fill="yellow" />
<rect x="43" y="31" width="2" height="2" fill="yellow" />
<rect x="43" y="31" width="2" height="2" fill="yellow" />
<rect x="43" y="31" width="2" height="2" fill="yellow" />
<rect x="43" y="31" width="2" height="2" fill="yellow" />
<rect x="43" y="30" width="2" height="2" fill="yellow" />
<rect x="43" y="30" width="2" height="2" fill="yellow" />
<rect x="42" y="30" width="2" height="2" fill="yellow" />
<rect x="42" y="30" width="2" height="2" fill="yellow" />
<rect x="42" y="30" width="2" height="2" fill="yellow" />
<rect x="42" y="29" width="2" height="2" fill="yellow" />
<rect x="42" y="29" width="2" height="2" fill="yellow" />
<rect x="42" y="29" width="2" height="2" fill="yellow" />
<rect x="42" y="29" width="2" height="2" fill="yellow" />
<rect x="42" y="29" width="2" height="2" fill="yellow" />
<rect x="42" y="29" width="2" height="2" fill="yellow" />
<rect x="42" y="28" width="2" height="2" fill="yellow" />
<rect x="42" y="28" width="2" height="2" fill="yellow" />
<rect x="42" y="28" width="2" height="2" fill="yellow" />
<rect x="42" y="28" width="2" height="2" fill="yellow" />
<rect x="42" y="28" width="2" height="2" fill="yellow" />
<rect x="42" y="27" width="2" height="2" fill="yellow" />
<rect x="42" y="27" width="2" height="2" fill="yellow" />
<rect x="42" y="27" width="2" height="2" fill="yellow" />
<rect x="41" y="27" width="2" height="2" fill="yellow" />
<rect x="41" y="27" width="2" height="2" fill="yellow" />
<rect x="41" y="27" width="2" height="2" fill="yellow" />
<rect x="41" y="27" width="2" height="2" fill="yellow" />
<rect x="41" y="26" width="2" height="2" fill="yellow" />
<rect x="41" y="26" width="2" height="2" fill="yellow" />
<rect x="41" y="26" width="2" height="2" fill="yellow" />
<rect x="41" y="26" width="2" height="2" fill="yellow" />
<rect x="41" y="26" width="2" height="2" fill="yellow" />
<rect x="41" y="26" width="2" height="2" fill="yellow" />
<rect x="40" y="25" width="2" height="2" fill="yellow" />
<rect x="40" y="25" width="2" height="2" fill="yellow" />
<rect x="40" y="25" width="2" height="2" fill="yellow" />
<rect x="40" y="25" width="2" height="2" fill="yellow" />
<rect x="40" y="25" width="2" height="2" fill="yellow" />
<rect x="40" y="25" width="2" height="2" fill="yellow" />
<rect x="40" y="25" width="2" height="2" fill="yellow" />
<rect x="40" y="24" width="2" height="2" fill="yellow" />
<rect x="39" y="24" width="2" height="2" fill="yellow" />
<rect x="39" y="24" width="2" height="2" fill="yellow" />
<rect x="39" y="24" width="2" height="2" fill="yellow" />
<rect x="39" y="24" width="2" height="2" fill="yellow" />
<rect x="39" y="24" width="2" height="2" fill="yellow" />
<rect x="39" y="24" width="2" height="2" fill="yellow" />
<rect x="39" y="24" width="2" height="2" fill="yellow" />
<rect x="38" y="23" width="2" height="2" fill="yellow" />
<rect x="38" y="23" width="2" height="2" fill="yellow" />
<rect x="38" y="23" width="2" height="2" fill="yellow" />
<rect x="38" y="23" width="2" height="2" fill="yellow" />
<rect x="38" y="23" width="2" height="2" fill="yellow" />
<rect x="38" y="23" width="2" height="2" fill="yellow" />
<rect x="37" y="23" width="2" height="2" fill="yellow" />
<rect x="37" y="23" width="2" height="2" fill="yellow" />
<rect x="37" y="23" width="2" height="2" fill="yellow" />
<rect x="37" y="23" width="2" height="2" fill="yellow" />
<rect x="37" y="22" width="2" height="2" fill="yellow" />
<rect x="37" y="22" width="2" height="2" fill="yellow" />
<rect x="37" y="22" width="2" height="2" fill="yellow" />
<rect x="36" y="22" width="2" height="2" fill="yellow" />
<rect x="36" y="22" width="2" height="2" fill="yellow" />
<rect x="36" y="22" width="2" height="2" fill="yellow" />
<rect x="36" y="22" width="2" height="2" fill="yellow" />
<rect x="36" y="22" width="2" height="2" fill="yellow" />
<rect x="35" y="22" width="2" height="2" fill="yellow" />
<rect x="35" y="22" width="2" height="2" fill="yellow" />
<rect x="35" y="22" width="2" height="2" fill="yellow" />
<rect x="35" y="22" width="2" height="2" fill="yellow" />
<rect x="35" y="22" width="2" height="2" fill="yellow" />
<rect x="35" y="22" width="2" height="2" fill="yellow" />
<rect x="34" y="22" width="2" height="2" fill="yellow" />
<rect x="34" y="22" width="2" height="2" fill="yellow" />
<rect x="34" y="22" width="2" height="2" fill="yellow" />
<rect x="34" y="21" width="2" height="2" fill="yellow" />
<rect x="34" y="21" width="2" height="2" fill="yellow" />
<rect x="33" y="21" width="2" height="2" fill="yellow" />
<rect x="33" y="21" width="2" height="2" fill="yellow" />
<rect x="33" y="21" width="2" height="2" fill="yellow" />
<rect x="33" y="21" width="2" height="2" fill="yellow" />
<rect x="33" y="21" width="2" height="2" fill="yellow" />
<rect x="33" y="21" width="2" height="2" fill="yellow" />
<rect x="32" y="21" width="2" height="2" fill="yellow" />
<rect x="32" y="21" width="2" height="2" fill="yellow" />
<rect x="32" y="21" width="2" height="2" fill="yellow" />
<rect x="32" y="21" width="2" height="2" fill="yellow" />
<rect x="32" y="21" width="2" height="2" fill="yellow" />
<rect x="31" y="21" width="2" height="2" fill="yellow" />
<rect x="31" y="21" width="2" height="2" fill="yellow" />
<rect x="31" y="21" width="2" height="2" fill="yellow" />
<rect x="31" y="21" width="2" height="2" fill="yellow" />
<rect x="31" y="21" width="2" height="2" fill="yellow" />
<rect x="31" y="21" width="2" height="2" fill="yellow" />
<rect x="30" y="21" width="2" height="2" fill="yellow" />
<rect x="30" y="21" width="2" height="2" fill="yellow" />
<rect x="30" y="22" width="2" height="2" fill="yellow" />
<rect x="30" y="22" width="2" height="2" fill="yellow" />
<rect x="30" y="22" width="2" height="2" fill="yellow" />
<rect x="29" y="22" width="2" height="2" fill="yellow" />
<rect x="29" y="22" width="2" height="2" fill="yellow" />
<rect x="29" y="22" width="2" height="2" fill="yellow" />
<rect x="29" y="22" width="2" height="2" fill="yellow" />
<rect x="29" y="22" width="2" height="2" fill="yellow" />
<rect x="29" y="22" width="2" height="2" fill="yellow" />
<rect x="28" y="22" width="2" height="2" fill="yellow" />
<rect x="28" y="22" width="2" height="2" fill="yellow" />
<rect x="28" y="22" width="2" height="2" fill="yellow" />
<rect x="28" y="22" width="2" height="2" fill="yellow" />
<rect x="28" y="22" width="2" height="2" fill="yellow" />
<rect x="27" y="22" width="2" height="2" fill="yellow" />
<rect x="27" y="22" width="2" height="2" fill="yellow" />
<rect x="27" y="22" width="2" height="2" fill="yellow" />
<rect x="27" y="23" width="2" height="2" fill="yellow" />
<rect x="27" y="23" width="2" height="2" fill="yellow" />
<rect x="27" y="23" width="2" height="2" fill="yellow" />
<rect x="27" y="23" width="2" height="2" fill="yellow" />
<rect x="26" y="23" width="2" height="2" fill="yellow" />
<rect x="26" y="23" width="2" height="2" fill="yellow" />
<rect x="26" y="23" width="2" height="2" fill="yellow" />
<rect x="26" y="23" width="2" height="2" fill="yellow" />
<rect x="26" y="23" width="2" height="2" fill="yellow" />
<rect x="26" y="23" width="2" height="2" fill="yellow" />
<rect x="25" y="24" width="2" height="2" fill="yellow" />
<rect x="25" y="24" width="2" height="2" fill="yellow" />
<rect x="25" y="24" width="2" height="2" fill="yellow" />
<rect x="25" y="24" width="2" height="2" fill="yellow" />
<rect x="25" y="24" width="2" height="2" fill="yellow" />
<rect x="25" y="24" width="2" height="2" fill="yellow" />
<rect x="25" y="24" width="2" height="2" fill="yellow" />
<rect x="24" y="24" width="2" height="2" fill="yellow" />
<rect x="24" y="25" width="2" height="2" fill="yellow" />
<rect x="24" y="25" width="2" height="2" fill="yellow" />
<rect x="24" y="25" width="2" height="2" fill="yellow" />
<rect x="24" y="25" width="2" height="2" fill="yellow" />
<rect x="24" y="25" width="2" height="2" fill="yellow" />
<rect x="24" y="25" width="2" height="2" fill="yellow" />
<rect x="24" y="25" width="2" height="2" fill="yellow" />
<rect x="23" y="26" width="2" height="2" fill="yellow" />
<rect x="23" y="26" width="2" height="2" fill="yellow" />
<rect x="23" y="26" width="2" height="2" fill="yellow" />
<rect x="23" y="26" width="2" height="2" fill="yellow" />
<rect x="23" y="26" width="2" height="2" fill="yellow" />
<rect x="23" y="26" width="2" height="2" fill="yellow" />
<rect x="23" y="27" width="2" height="2" fill="yellow" />
<rect x="23" y="27" width="2" height="2" fill="yellow" />
<rect x="23" y="27" width="2" height="2" fill="yellow" />
<rect x="23" y="27" width="2" height="2" fill="yellow" />
<rect x="22" y="27" width="2" height="2" fill="yellow" />
<rect x="22" y="27" width="2" height="2" fill="yellow" />
<rect x="22" y="27" width="2" height="2" fill="yellow" />
<rect x="22" y="28" width="2" height="2" fill="yellow" />
<rect x="22" y="28" width="2" height="2" fill="yellow" />
<rect x="22" y="28" width="2" height="2" fill="yellow" />
<rect x="22" y="28" width="2" height="2" fill="yellow" />
<rect x="22" y="28" width="2" height="2" fill="yellow" />
<rect x="22" y="29" width="2" height="2" fill="yellow" />
<rect x="22" y="29" width="2" height="2" fill="yellow" />
<rect x="22" y="29" width="2" height="2" fill="yellow" />
<rect x="22" y="29" width="2" height="2" fill="yellow" />
<rect x="22" y="29" width="2" height="2" fill="yellow" />
<rect x="22" y="29" width="2" height="2" fill="yellow" />
<rect x="22" y="30" width="2" height="2" fill="yellow" />
<rect x="22" y="30" width="2" height="2" fill="yellow" />
<rect x="22" y="30" width="2" height="2" fill="yellow" />
<rect x="21" y="30" width="2" height="2" fill="yellow" />
<rect x="21" y="30" width="2" height="2" fill="yellow" />
<rect x="21" y="31" width="2" height="2" fill="yellow" />
<rect x="21" y="31" width="2" height="2" fill="yellow" />
<rect x="21" y="31" width="2" height="2" fill="yellow" />
<rect x="21" y="31" width="2" height="2" fill="yellow" />
<rect x="21" y="31" width="2" height="2" fill="yellow" />
<rect x="21" y="31" width="2" height="2" fill="yellow" />
<rect x="21" y="32" width="2" height="2" fill="yellow" />
<rect x="21" y="32" width="2" height="2" fill="yellow" />
<rect x="21" y="32" width="2" height="2" fill="yellow" />
<rect x="21" y="32" width="2" height="2" fill="yellow" />
<rect x="21" y="32" width="2" height="2" fill="yellow" />
<rect x="21" y="33" width="2" height="2" fill="yellow" />
<rect x="21" y="33" width="2" height="2" fill="yellow" />
<rect x="21" y="33" width="2" height="2" fill="yellow" />
<rect x="21" y="33" width="2" height="2" fill="yellow" />
<rect x="21" y="33" width="2" height="2" fill="yellow" />
<rect x="21" y="33" width="2" height="2" fill="yellow" />
<rect x="21" y="34" width="2" height="2" fill="yellow" />
<rect x="21" y="34" width="2" height="2" fill="yellow" />
<rect x="22" y="34" width="2" height="2" fill="yellow" />
<rect x="22" y="34" width="2" height="2" fill="yellow" />
<rect x="22" y="34" width="2" height="2" fill="yellow" />
<rect x="22" y="35" width="2" height="2" fill="yellow" />
<rect x="22" y="35" width="2" height="2" fill="yellow" />
<rect x="22" y="35" width="2" height="2" fill="yellow" />
<rect x="22" y="35" width="2" height="2" fill="yellow" />
<rect x="22" y="35" width="2" height="2" fill="yellow" />
<rect x="22" y="35" width="2" height="2" fill="yellow" />
<rect x="22" y="36" width="2" height="2" fill="yellow" />
<rect x="22" y="36" width="2" height="2" fill="yellow" />
<rect x="22" y="36" width="2" height="2" fill="yellow" />
<rect x="22" y="36" width="2" height="2" fill="yellow" />
<rect x="22" y="36" width="2" height="2" fill="yellow" />
<rect x="22" y="37" width="2" height="2" fill="yellow" />
<rect x="22" y="37" width="2" height="2" fill="yellow" />
<rect x="22" y="37" width="2" height="2" fill="yellow" />
<rect x="23" y="37" width="2" height="2" fill="yellow" />
<rect x="23" y="37" width="2" height="2" fill="yellow" />
<rect x="23" y="37" width="2" height="2" fill="yellow" />
<rect x="23" y="37" width="2" height="2" fill="yellow" />
<rect x="23" y="38" width="2" height="2" fill="yellow" />
<rect x="23" y="38" width="2" height="2" fill="yellow" />
<rect x="23" y="38" width="2" height="2" fill="yellow" />
<rect x="23" y="38" width="2" height="2" fill="yellow" />
<rect x="23" y="38" width="2" height="2" fill="yellow" />
<rect x="23" y="38" width="2" height="2" fill="yellow" />
<rect x="24" y="39" width="2" height="2" fill="yellow" />
<rect x="24" y="39" width="2" height="2" fill="yellow" />
<rect x="24" y="39" width="2" height="2" fill="yellow" />
<rect x="24" y="39" width="2" height="2" fill="yellow" />
<rect x="24" y="39" width="2" height="2" fill="yellow" />
<rect x="24" y="39" width="2" height="2" fill="yellow" />
<rect x="24" y="39" width="2" height="2" fill="yellow" />
<rect x="24" y="40" width="2" height="2" fill="yellow" />
<rect x="25" y="40" width="2" height="2" fill="yellow" />
<rect x="25" y="40" width="2" height="2" fill="yellow" />
<rect x="25" y="40" width="2" height="2" fill="yellow" />
<rect x="25" y="40" width="2" height="2" fill="yellow" />
<rect x="25" y="40" width="2" height="2" fill="yellow" />
<rect x="25" y="40" width="2" height="2" fill="yellow" />
<rect x="25" y="40" width="2" height="2" fill="yellow" />
<rect x="26" y="41" width="2" height="2" fill="yellow" />
<rect x="26" y="41" width="2" height="2" fill="yellow" />
<rect x="26" y="41" width="2" height="2" fill="yellow" />
<rect x="26" y="41" width="2" height="2" fill="yellow" />
<rect x="26" y="41" width="2" height="2" fill="yellow" />
<rect x="26" y="41" width="2" height="2" fill="yellow" />
<rect x="27" y="41" width="2" height="2" fill="yellow" />
<rect x="27" y="41" width="2" height="2" fill="yellow" />
<rect x="27" y="41" width="2" height="2" fill="yellow" />
<rect x="27" y="41" width="2" height="2" fill="yellow" />
<rect x="27" y="42" width="2" height="2" fill="yellow" />
<rect x="27" y="42" width="2" height="2" fill="yellow" />
<rect x="27" y="42" width="2" height="2" fill="yellow" />
<rect x="28" y="42" width="2" height="2" fill="yellow" />
<rect x="28" y="42" width="2" height="2" fill="yellow" />
<rect x="28" y="42" width="2" height="2" fill="yellow" />
<rect x="28" y="42" width="2" height="2" fill="yellow" />
<rect x="28" y="42" width="2" height="2" fill="yellow" />
<rect x="29" y="42" width="2" height="2" fill="yellow" />
<rect x="29" y="42" width="2" height="2" fill="yellow" />
<rect x="29" y="42" width="2" height="2" fill="yellow" />
<rect x="29" y="42" width="2" height="2" fill="yellow" />
<rect x="29" y="42" width="2" height="2" fill="yellow" />
<rect x="29" y="42" width="2" height="2" fill="yellow" />
<rect x="30" y="42" width="2" height="2" fill="yellow" />
<rect x="30" y="42" width="2" height="2" fill="yellow" />
<rect x="30" y="42" width="2" height="2" fill="yellow" />
<rect x="30" y="43" width="2" height="2" fill="yellow" />
<rect x="30" y="43" width="2" height="2" fill="yellow" />
<rect x="31" y="43" width="2" height="2" fill="yellow" />
<rect x="31" y="43" width="2" height="2" fill="yellow" />
<rect x="31" y="43" width="2" height="2" fill="yellow" />
<rect x="31" y="43" width="2" height="2" fill="yellow" />
<rect x="31" y="43" width="2" height="2" fill="yellow" />
<rect x="31" y="43" width="2" height="2" fill="yellow" />
<rect x="32" y="43" width="2" height="2" fill="yellow" />
<rect x="32" y="43" width="2" height="2" fill="yellow" />
<rect x="32" y="43" width="2" height="2" fill="yellow" />
<rect x="32" y="43" width="2" height="2" fill="yellow" />
<rect x="32" y="43" width="2" height="2" fill="yellow" />
<rect x="33" y="43" width="2" height="2" fill="yellow" />
<rect x="33" y="43" width="2" height="2" fill="yellow" />
<rect x="33" y="43" width="2" height="2" fill="yellow" />
<rect x="33" y="43" width="2" height="2" fill="yellow" />
<rect x="33" y="43" width="2" height="2" fill="yellow" />
<rect x="33" y="43" width="2" height="2" fill="yellow" />
<rect x="34" y="43" width="2" height="2" fill="yellow" />
<rect x="34" y="43" width="2" height="2" fill="yellow" />
<rect x="34" y="42" width="2" height="2" fill="yellow" />
<rect x="34" y="42" width="2" height="2" fill="yellow" />
<rect x="34" y="42" width="2" height="2" fill="yellow" />
<rect x="35" y="42" width="2" height="2" fill="yellow" />
<rect x="35" y="42" width="2" height="2" fill="yellow" />
<rect x="35" y="42" width="2" height="2" fill="yellow" />
<rect x="35" y="42" width="2" height="2" fill="yellow" />
<rect x="35" y="42" width="2" height="2" fill="yellow" />
<rect x="35" y="42" width="2" height="2" fill="yellow" />
<rect x="36" y="42" width="2" height="2" fill="yellow" />
<rect x="36" y="42" width="2" height="2" fill="yellow" />
<rect x="36" y="42" width="2" height="2" fill="yellow" />
<rect x="36" y="42" width="2" height="2" fill="yellow" />
<rect x="36" y="42" width="2" height="2" fill="yellow" />
<rect x="37" y="42" width="2" height="2" fill="yellow" />
<rect x="37" y="42" width="2" height="2" fill="yellow" />
<rect x="37" y="42" width="2" height="2" fill="yellow" />
<rect x="37" y="41" width="2" height="2" fill="yellow" />
<rect x="37" y="41" width="2" height="2" fill="yellow" />
<rect x="37" y="41" width="2" height="2" fill="yellow" />
<rect x="37" y="41" width="2" height="2" fill="yellow" />
<rect x="38" y="41" width="2" height="2" fill="yellow" />
<rect x="38" y="41" width="2" height="2" fill="yellow" />
<rect x="38" y="41" width="2" height="2" fill="yellow" />
<rect x="38" y="41" width="2" height="2" fill="yellow" />
<rect x="38" y="41" width="2" height="2" fill="yellow" />
<rect x="38" y="41" width="2" height="2" fill="yellow" />
<rect x="39" y="40" width="2" height="2" fill="yellow" />
<rect x="39" y="40" width="2" height="2" fill="yellow" />
<rect x="39" y="40" width="2" height="2" fill="yellow" />
<rect x="39" y="40" width="2" height="2" fill="yellow" />
<rect x="39" y="40" width="2" height="2" fill="yellow" />
<rect x="39" y="40" width="2" height="2" fill="yellow" />
<rect x="39" y="40" width="2" height="2" fill="yellow" />
<rect x="40" y="40" width="2" height="2" fill="yellow" />
<rect x="40" y="39" width="2" height="2" fill="yellow" />
<rect x="40" y="39" width="2" height="2" fill="yellow" />
<rect x="40" y="39" width="2" height="2" fill="yellow" />
<rect x="40" y="39" width="2" height="2" fill="yellow" />
<rect x="40" y="39" width="2" height="2" fill="yellow" />
<rect x="40" y="39" width="2" height="2" fill="yellow" />
<rect x="40" y="39" width="2" height="2" fill="yellow" />
<rect x="41" y="38" width="2" height="2" fill="yellow" />
<rect x="41" y="38" width="2" height="2" fill="yellow" />
<rect x="41" y="38" width="2" height="2" fill="yellow" />
<rect x="41" y="38" width="2" height="2" fill="yellow" />
<rect x="41" y="38" width="2" height="2" fill="yellow" />
<rect x="41" y="38" width="2" height="2" fill="yellow" />
<rect x="41" y="37" width="2" height="2" fill="yellow" />
<rect x="41" y="37" width="2" height="2" fill="yellow" />
<rect x="41" y="37" width="2" height="2" fill="yellow" />
<rect x="41" y="37" width="2" height="2" fill="yellow" />
<rect x="42" y="37" width="2" height="2" fill="yellow" />
<rect x="42" y="37" width="2" height="2" fill="yellow" />
<rect x="42" y="37" width="2" height="2" fill="yellow" />
<rect x="42" y="36" width="2" height="2" fill="yellow" />
<rect x="42" y="36" width="2" height="2" fill="yellow" />
<rect x="42" y="36" width="2" height="2" fill="yellow" />
<rect x="42" y="36" width="2" height="2" fill="yellow" />
<rect x="42" y="36" width="2" height="2" fill="yellow" />
<rect x="42" y="35" width="2" height="2" fill="yellow" />
<rect x="42" y="35" width="2" height="2" fill="yellow" />
<rect x="42" y="35" width="2" height="2" fill="yellow" />
<rect x="42" y="35" width="2" height="2" fill="yellow" />
<rect x="42" y="35" width="2" height="2" fill="yellow" />
<rect x="42" y="35" width="2" height="2" fill="yellow" />
<rect x="42" y="34" width="2" height="2" fill="yellow" />
<rect x="42" y="34" width="2" height="2" fill="yellow" />
<rect x="42" y="34" width="2" height="2" fill="yellow" />
<rect x="43" y="34" width="2" height="2" fill="yellow" />
<rect x="43" y="34" width="2" height="2" fill="yellow" />
<rect x="43" y="33" width="2" height="2" fill="yellow" />
<rect x="43" y="33" width="2" height="2" fill="yellow" />
<rect x="43" y="33" width="2" height="2" fill="yellow" />
<rect x="43" y="33" width="2" height="2" fill="yellow" />
<rect x="43" y="33" width="2" height="2" fill="yellow" />
<rect x="43" y="33" width="2" height="2" fill="yellow" />
<rect x="43" y="32" width="2" height="2" fill="yellow" />
<rect x="43" y="32" width="2" height="2" fill="yellow" />
</svg>